<svg xmlns="http://www.w3.org/2000/svg" width="1440" height="900"><path d="M752,408L679,534L812,542Z" fill="#8c8c8c" stroke="#8c8c8c" stroke-width="1.51"/><path d="M679,534L790,682L812,542Z" fill="#7d7d7d" stroke="#7d7d7d" stroke-width="1.51"/><path d="M645,623L790,682L679,534Z" fill="#7e7e7e" stroke="#7e7e7e" stroke-width="1.51"/><path d="M812,542L915,361L752,408Z" fill="#8d8d8d" stroke="#8d8d8d" stroke-width="1.51"/><path d="M924,634L948,512L812,542Z" fill="#737373" stroke="#737373" stroke-width="1.51"/><path d="M752,408L618,337L679,534Z" fill="#9e9e9e" stroke="#9e9e9e" stroke-width="1.51"/><path d="M679,534L473,521L645,623Z" fill="#919191" stroke="#919191" stroke-width="1.51"/><path d="M948,512L915,361L812,542Z" fill="#828282" stroke="#828282" stroke-width="1.51"/><path d="M752,408L759,256L618,337Z" fill="#ababab" stroke="#ababab" stroke-width="1.51"/><path d="M790,682L924,634L812,542Z" fill="#707070" stroke="#707070" stroke-width="1.51"/><path d="M915,361L759,256L752,408Z" fill="#a0a0a0" stroke="#a0a0a0" stroke-width="1.51"/><path d="M618,337L473,521L679,534Z" fill="#a2a2a2" stroke="#a2a2a2" stroke-width="1.51"/><path d="M618,337L462,346L473,521Z" fill="#b3b3b3" stroke="#b3b3b3" stroke-width="1.51"/><path d="M759,256L605,246L618,337Z" fill="#b7b7b7" stroke="#b7b7b7" stroke-width="1.51"/><path d="M645,623L670,793L790,682Z" fill="#707070" stroke="#707070" stroke-width="1.51"/><path d="M473,521L506,662L645,623Z" fill="#919191" stroke="#919191" stroke-width="1.51"/><path d="M605,246L534,264L618,337Z" fill="#bfbfbf" stroke="#bfbfbf" stroke-width="1.51"/><path d="M506,662L670,793L645,623Z" fill="#7b7b7b" stroke="#7b7b7b" stroke-width="1.51"/><path d="M790,682L930,783L924,634Z" fill="#5f5f5f" stroke="#5f5f5f" stroke-width="1.51"/><path d="M534,264L462,346L618,337Z" fill="#bfbfbf" stroke="#bfbfbf" stroke-width="1.51"/><path d="M915,361L980,254L759,256Z" fill="#9e9e9e" stroke="#9e9e9e" stroke-width="1.51"/><path d="M759,256L680,64L605,246Z" fill="#bebebe" stroke="#bebebe" stroke-width="1.51"/><path d="M1097,390L980,254L915,361Z" fill="#8e8e8e" stroke="#8e8e8e" stroke-width="1.51"/><path d="M1117,497L1097,390L948,512Z" fill="#737373" stroke="#737373" stroke-width="1.51"/><path d="M948,512L1097,390L915,361Z" fill="#818181" stroke="#818181" stroke-width="1.51"/><path d="M768,849L930,783L790,682Z" fill="#545454" stroke="#545454" stroke-width="1.51"/><path d="M473,521L395,536L506,662Z" fill="#9c9c9c" stroke="#9c9c9c" stroke-width="1.51"/><path d="M392,345L395,536L473,521Z" fill="#afafaf" stroke="#afafaf" stroke-width="1.51"/><path d="M670,793L768,849L790,682Z" fill="#5b5b5b" stroke="#5b5b5b" stroke-width="1.51"/><path d="M1117,497L948,512L1101,637Z" fill="#666666" stroke="#666666" stroke-width="1.51"/><path d="M1101,637L948,512L924,634Z" fill="#656565" stroke="#656565" stroke-width="1.51"/><path d="M930,783L1101,637L924,634Z" fill="#585858" stroke="#585858" stroke-width="1.51"/><path d="M462,346L392,345L473,521Z" fill="#b9b9b9" stroke="#b9b9b9" stroke-width="1.51"/><path d="M370,196L392,345L462,346Z" fill="#cccccc" stroke="#cccccc" stroke-width="1.51"/><path d="M912,89L788,106L759,256Z" fill="#b4b4b4" stroke="#b4b4b4" stroke-width="1.51"/><path d="M605,246L466,54L534,264Z" fill="#cfcfcf" stroke="#cfcfcf" stroke-width="1.51"/><path d="M534,264L370,196L462,346Z" fill="#cccccc" stroke="#cccccc" stroke-width="1.51"/><path d="M506,662L508,805L670,793Z" fill="#717171" stroke="#717171" stroke-width="1.51"/><path d="M670,793L659,946L768,849Z" fill="#515151" stroke="#515151" stroke-width="1.51"/><path d="M397,772L508,805L506,662Z" fill="#7a7a7a" stroke="#7a7a7a" stroke-width="1.51"/><path d="M788,106L680,64L759,256Z" fill="#bdbdbd" stroke="#bdbdbd" stroke-width="1.51"/><path d="M788,106L825,-32L680,64Z" fill="#c2c2c2" stroke="#c2c2c2" stroke-width="1.51"/><path d="M980,254L912,89L759,256Z" fill="#a9a9a9" stroke="#a9a9a9" stroke-width="1.51"/><path d="M1102,49L912,89L980,254Z" fill="#a4a4a4" stroke="#a4a4a4" stroke-width="1.51"/><path d="M1097,390L1102,232L980,254Z" fill="#8d8d8d" stroke="#8d8d8d" stroke-width="1.51"/><path d="M1222,367L1102,232L1097,390Z" fill="#7e7e7e" stroke="#7e7e7e" stroke-width="1.51"/><path d="M236,517L352,695L395,536Z" fill="#a3a3a3" stroke="#a3a3a3" stroke-width="1.51"/><path d="M395,536L352,695L506,662Z" fill="#969696" stroke="#969696" stroke-width="1.51"/><path d="M352,695L397,772L506,662Z" fill="#878787" stroke="#878787" stroke-width="1.51"/><path d="M768,849L893,917L930,783Z" fill="#444444" stroke="#444444" stroke-width="1.51"/><path d="M930,783L1087,843L1101,637Z" fill="#454545" stroke="#454545" stroke-width="1.51"/><path d="M800,979L893,917L768,849Z" fill="#404040" stroke="#404040" stroke-width="1.51"/><path d="M508,805L659,946L670,793Z" fill="#5b5b5b" stroke="#5b5b5b" stroke-width="1.51"/><path d="M474,945L659,946L508,805Z" fill="#5a5a5a" stroke="#5a5a5a" stroke-width="1.51"/><path d="M403,92L370,196L534,264Z" fill="#d7d7d7" stroke="#d7d7d7" stroke-width="1.51"/><path d="M392,345L236,517L395,536Z" fill="#b5b5b5" stroke="#b5b5b5" stroke-width="1.51"/><path d="M893,917L1087,843L930,783Z" fill="#3b3b3b" stroke="#3b3b3b" stroke-width="1.51"/><path d="M1262,497L1222,367L1117,497Z" fill="#626262" stroke="#626262" stroke-width="1.51"/><path d="M1117,497L1222,367L1097,390Z" fill="#6f6f6f" stroke="#6f6f6f" stroke-width="1.51"/><path d="M1262,497L1117,497L1101,637Z" fill="#5a5a5a" stroke="#5a5a5a" stroke-width="1.51"/><path d="M1087,843L1199,686L1101,637Z" fill="#424242" stroke="#424242" stroke-width="1.51"/><path d="M893,917L1119,937L1087,843Z" fill="#2e2e2e" stroke="#2e2e2e" stroke-width="1.51"/><path d="M659,946L800,979L768,849Z" fill="#474747" stroke="#474747" stroke-width="1.51"/><path d="M198,365L236,517L392,345Z" fill="#c4c4c4" stroke="#c4c4c4" stroke-width="1.51"/><path d="M374,984L474,945L397,772Z" fill="#626262" stroke="#626262" stroke-width="1.51"/><path d="M1199,686L1262,497L1101,637Z" fill="#4d4d4d" stroke="#4d4d4d" stroke-width="1.51"/><path d="M680,64L466,54L605,246Z" fill="#d0d0d0" stroke="#d0d0d0" stroke-width="1.51"/><path d="M466,54L403,92L534,264Z" fill="#d9d9d9" stroke="#d9d9d9" stroke-width="1.51"/><path d="M370,196L198,365L392,345Z" fill="#d2d2d2" stroke="#d2d2d2" stroke-width="1.51"/><path d="M912,89L825,-32L788,106Z" fill="#b9b9b9" stroke="#b9b9b9" stroke-width="1.51"/><path d="M680,64L524,-66L466,54Z" fill="#dbdbdb" stroke="#dbdbdb" stroke-width="1.51"/><path d="M903,-17L825,-32L912,89Z" fill="#b8b8b8" stroke="#b8b8b8" stroke-width="1.51"/><path d="M1102,49L980,254L1102,232Z" fill="#989898" stroke="#989898" stroke-width="1.51"/><path d="M1102,49L903,-17L912,89Z" fill="#adadad" stroke="#adadad" stroke-width="1.51"/><path d="M397,772L474,945L508,805Z" fill="#696969" stroke="#696969" stroke-width="1.51"/><path d="M659,946L627,1081L800,979Z" fill="#4b4b4b" stroke="#4b4b4b" stroke-width="1.51"/><path d="M234,825L397,772L352,695Z" fill="#808080" stroke="#808080" stroke-width="1.51"/><path d="M825,-175L685,-66L825,-32Z" fill="#c3c3c3" stroke="#c3c3c3" stroke-width="1.51"/><path d="M825,-32L685,-66L680,64Z" fill="#c8c8c8" stroke="#c8c8c8" stroke-width="1.51"/><path d="M177,223L198,365L370,196Z" fill="#dbdbdb" stroke="#dbdbdb" stroke-width="1.51"/><path d="M1256,131L1102,49L1102,232Z" fill="#909090" stroke="#909090" stroke-width="1.51"/><path d="M1222,367L1265,238L1102,232Z" fill="#7b7b7b" stroke="#7b7b7b" stroke-width="1.51"/><path d="M1364,391L1265,238L1222,367Z" fill="#6a6a6a" stroke="#6a6a6a" stroke-width="1.51"/><path d="M1087,843L1268,834L1199,686Z" fill="#2e2e2e" stroke="#2e2e2e" stroke-width="1.51"/><path d="M1199,686L1374,560L1262,497Z" fill="#464646" stroke="#464646" stroke-width="1.51"/><path d="M911,1136L1119,937L893,917Z" fill="#333333" stroke="#333333" stroke-width="1.51"/><path d="M685,-66L524,-66L680,64Z" fill="#d3d3d3" stroke="#d3d3d3" stroke-width="1.51"/><path d="M466,54L360,-12L403,92Z" fill="#e5e5e5" stroke="#e5e5e5" stroke-width="1.51"/><path d="M236,517L186,702L352,695Z" fill="#9f9f9f" stroke="#9f9f9f" stroke-width="1.51"/><path d="M55,492L186,702L236,517Z" fill="#afafaf" stroke="#afafaf" stroke-width="1.51"/><path d="M474,945L627,1081L659,946Z" fill="#565656" stroke="#565656" stroke-width="1.51"/><path d="M800,979L911,1136L893,917Z" fill="#3c3c3c" stroke="#3c3c3c" stroke-width="1.51"/><path d="M508,1116L627,1081L474,945Z" fill="#5b5b5b" stroke="#5b5b5b" stroke-width="1.51"/><path d="M186,702L234,825L352,695Z" fill="#898989" stroke="#898989" stroke-width="1.51"/><path d="M234,825L374,984L397,772Z" fill="#6e6e6e" stroke="#6e6e6e" stroke-width="1.51"/><path d="M1265,238L1256,131L1102,232Z" fill="#828282" stroke="#828282" stroke-width="1.51"/><path d="M1119,937L1268,834L1087,843Z" fill="#262626" stroke="#262626" stroke-width="1.51"/><path d="M1262,497L1364,391L1222,367Z" fill="#5d5d5d" stroke="#5d5d5d" stroke-width="1.51"/><path d="M1265,238L1392,236L1256,131Z" fill="#777777" stroke="#777777" stroke-width="1.51"/><path d="M1374,560L1364,391L1262,497Z" fill="#4f4f4f" stroke="#4f4f4f" stroke-width="1.51"/><path d="M1234,-59L1116,-15L1102,49Z" fill="#9a9a9a" stroke="#9a9a9a" stroke-width="1.51"/><path d="M1102,49L1116,-15L903,-17Z" fill="#a8a8a8" stroke="#a8a8a8" stroke-width="1.51"/><path d="M903,-17L825,-175L825,-32Z" fill="#bbbbbb" stroke="#bbbbbb" stroke-width="1.51"/><path d="M1388,652L1374,560L1199,686Z" fill="#3b3b3b" stroke="#3b3b3b" stroke-width="1.51"/><path d="M198,365L55,492L236,517Z" fill="#c1c1c1" stroke="#c1c1c1" stroke-width="1.51"/><path d="M249,97L177,223L370,196Z" fill="#e4e4e4" stroke="#e4e4e4" stroke-width="1.51"/><path d="M249,97L370,196L403,92Z" fill="#e4e4e4" stroke="#e4e4e4" stroke-width="1.51"/><path d="M524,-66L360,-12L466,54Z" fill="#e5e5e5" stroke="#e5e5e5" stroke-width="1.51"/><path d="M360,-12L249,97L403,92Z" fill="#e9e9e9" stroke="#e9e9e9" stroke-width="1.51"/><path d="M627,1081L829,1136L800,979Z" fill="#464646" stroke="#464646" stroke-width="1.51"/><path d="M1113,1141L1182,980L1119,937Z" fill="#242424" stroke="#242424" stroke-width="1.51"/><path d="M1119,937L1182,980L1268,834Z" fill="#1e1e1e" stroke="#1e1e1e" stroke-width="1.51"/><path d="M1470,333L1392,236L1364,391Z" fill="#5f5f5f" stroke="#5f5f5f" stroke-width="1.51"/><path d="M1349,804L1388,652L1199,686Z" fill="#2e2e2e" stroke="#2e2e2e" stroke-width="1.51"/><path d="M1349,804L1199,686L1268,834Z" fill="#262626" stroke="#262626" stroke-width="1.51"/><path d="M829,1136L911,1136L800,979Z" fill="#3e3e3e" stroke="#3e3e3e" stroke-width="1.51"/><path d="M86,260L90,371L198,365Z" fill="#d9d9d9" stroke="#d9d9d9" stroke-width="1.51"/><path d="M86,260L198,365L177,223Z" fill="#dedede" stroke="#dedede" stroke-width="1.51"/><path d="M954,-236L825,-175L903,-17Z" fill="#b7b7b7" stroke="#b7b7b7" stroke-width="1.51"/><path d="M685,-66L642,-182L524,-66Z" fill="#d5d5d5" stroke="#d5d5d5" stroke-width="1.51"/><path d="M524,-66L479,-230L360,-12Z" fill="#e4e4e4" stroke="#e4e4e4" stroke-width="1.51"/><path d="M627,1081L508,1116L829,1136Z" fill="#4f4f4f" stroke="#4f4f4f" stroke-width="1.51"/><path d="M374,984L508,1116L474,945Z" fill="#606060" stroke="#606060" stroke-width="1.51"/><path d="M1325,963L1349,804L1268,834Z" fill="#161616" stroke="#161616" stroke-width="1.51"/><path d="M825,-175L642,-182L685,-66Z" fill="#cacaca" stroke="#cacaca" stroke-width="1.51"/><path d="M1364,391L1392,236L1265,238Z" fill="#696969" stroke="#696969" stroke-width="1.51"/><path d="M1256,131L1234,-59L1102,49Z" fill="#919191" stroke="#919191" stroke-width="1.51"/><path d="M1470,333L1364,391L1536,512Z" fill="#4f4f4f" stroke="#4f4f4f" stroke-width="1.51"/><path d="M113,927L193,979L234,825Z" fill="#707070" stroke="#707070" stroke-width="1.51"/><path d="M90,371L55,492L198,365Z" fill="#cccccc" stroke="#cccccc" stroke-width="1.51"/><path d="M90,371L-53,498L55,492Z" fill="#c7c7c7" stroke="#c7c7c7" stroke-width="1.51"/><path d="M71,107L86,260L177,223Z" fill="#eaeaea" stroke="#eaeaea" stroke-width="1.51"/><path d="M374,984L337,1059L508,1116Z" fill="#636363" stroke="#636363" stroke-width="1.51"/><path d="M193,979L337,1059L374,984Z" fill="#696969" stroke="#696969" stroke-width="1.51"/><path d="M193,979L374,984L234,825Z" fill="#6c6c6c" stroke="#6c6c6c" stroke-width="1.51"/><path d="M1116,-15L1114,-162L903,-17Z" fill="#a8a8a8" stroke="#a8a8a8" stroke-width="1.51"/><path d="M1388,-43L1234,-59L1256,131Z" fill="#868686" stroke="#868686" stroke-width="1.51"/><path d="M1392,236L1402,96L1256,131Z" fill="#767676" stroke="#767676" stroke-width="1.51"/><path d="M1536,512L1364,391L1374,560Z" fill="#454545" stroke="#454545" stroke-width="1.51"/><path d="M1479,676L1374,560L1388,652Z" fill="#333333" stroke="#333333" stroke-width="1.51"/><path d="M69,805L234,825L186,702Z" fill="#868686" stroke="#868686" stroke-width="1.51"/><path d="M55,492L27,671L186,702Z" fill="#a9a9a9" stroke="#a9a9a9" stroke-width="1.51"/><path d="M-53,498L27,671L55,492Z" fill="#b8b8b8" stroke="#b8b8b8" stroke-width="1.51"/><path d="M1349,804L1479,676L1388,652Z" fill="#272727" stroke="#272727" stroke-width="1.51"/><path d="M1182,980L1325,963L1268,834Z" fill="#161616" stroke="#161616" stroke-width="1.51"/><path d="M1198,1109L1325,963L1182,980Z" fill="#191919" stroke="#191919" stroke-width="1.51"/><path d="M829,1136L1113,1141L911,1136Z" fill="#353535" stroke="#353535" stroke-width="1.51"/><path d="M911,1136L1113,1141L1119,937Z" fill="#2d2d2d" stroke="#2d2d2d" stroke-width="1.51"/><path d="M1234,-59L1114,-162L1116,-15Z" fill="#999999" stroke="#999999" stroke-width="1.51"/><path d="M27,671L69,805L186,702Z" fill="#949494" stroke="#949494" stroke-width="1.51"/><path d="M1523,814L1479,676L1349,804Z" fill="#1a1a1a" stroke="#1a1a1a" stroke-width="1.51"/><path d="M825,-175L954,-236L642,-182Z" fill="#c0c0c0" stroke="#c0c0c0" stroke-width="1.51"/><path d="M1114,-162L954,-236L903,-17Z" fill="#adadad" stroke="#adadad" stroke-width="1.51"/><path d="M1485,210L1402,96L1392,236Z" fill="#6c6c6c" stroke="#6c6c6c" stroke-width="1.51"/><path d="M1113,1141L1198,1109L1182,980Z" fill="#212121" stroke="#212121" stroke-width="1.51"/><path d="M642,-182L479,-230L524,-66Z" fill="#dddddd" stroke="#dddddd" stroke-width="1.51"/><path d="M360,-12L187,-38L249,97Z" fill="#f1f1f1" stroke="#f1f1f1" stroke-width="1.51"/><path d="M249,97L71,107L177,223Z" fill="#ededed" stroke="#ededed" stroke-width="1.51"/><path d="M954,-236L479,-230L642,-182Z" fill="#cccccc" stroke="#cccccc" stroke-width="1.51"/><path d="M219,-176L187,-38L360,-12Z" fill="#f2f2f2" stroke="#f2f2f2" stroke-width="1.51"/><path d="M69,805L113,927L234,825Z" fill="#7a7a7a" stroke="#7a7a7a" stroke-width="1.51"/><path d="M187,-38L71,107L249,97Z" fill="#f4f4f4" stroke="#f4f4f4" stroke-width="1.51"/><path d="M-84,338L-53,498L90,371Z" fill="#d2d2d2" stroke="#d2d2d2" stroke-width="1.51"/><path d="M1479,676L1536,512L1374,560Z" fill="#373737" stroke="#373737" stroke-width="1.51"/><path d="M1470,333L1485,210L1392,236Z" fill="#626262" stroke="#626262" stroke-width="1.51"/><path d="M1656,222L1485,210L1470,333Z" fill="#636363" stroke="#636363" stroke-width="1.51"/><path d="M81,1073L224,1079L193,979Z" fill="#717171" stroke="#717171" stroke-width="1.51"/><path d="M193,979L224,1079L337,1059Z" fill="#6c6c6c" stroke="#6c6c6c" stroke-width="1.51"/><path d="M337,1059L224,1079L508,1116Z" fill="#666666" stroke="#666666" stroke-width="1.51"/><path d="M1347,-231L1180,-171L1234,-59Z" fill="#8a8a8a" stroke="#8a8a8a" stroke-width="1.51"/><path d="M1234,-59L1180,-171L1114,-162Z" fill="#969696" stroke="#969696" stroke-width="1.51"/><path d="M1114,-162L1180,-171L954,-236Z" fill="#a4a4a4" stroke="#a4a4a4" stroke-width="1.51"/><path d="M-33,931L81,1073L113,927Z" fill="#757575" stroke="#757575" stroke-width="1.51"/><path d="M27,671L-31,689L69,805Z" fill="#989898" stroke="#989898" stroke-width="1.51"/><path d="M-84,338L90,371L86,260Z" fill="#dedede" stroke="#dedede" stroke-width="1.51"/><path d="M-53,498L-31,689L27,671Z" fill="#adadad" stroke="#adadad" stroke-width="1.51"/><path d="M479,-230L321,-224L360,-12Z" fill="#eaeaea" stroke="#eaeaea" stroke-width="1.51"/><path d="M187,-38L33,-58L71,107Z" fill="#fbfbfb" stroke="#fbfbfb" stroke-width="1.51"/><path d="M1402,96L1388,-43L1256,131Z" fill="#7d7d7d" stroke="#7d7d7d" stroke-width="1.51"/><path d="M1471,68L1388,-43L1402,96Z" fill="#777777" stroke="#777777" stroke-width="1.51"/><path d="M1482,-35L1471,68L1648,108Z" fill="#747474" stroke="#747474" stroke-width="1.51"/><path d="M1485,210L1471,68L1402,96Z" fill="#6f6f6f" stroke="#6f6f6f" stroke-width="1.51"/><path d="M1468,983L1349,804L1325,963Z" fill="#090909" stroke="#090909" stroke-width="1.51"/><path d="M1468,983L1523,814L1349,804Z" fill="#080808" stroke="#080808" stroke-width="1.51"/><path d="M1677,672L1682,543L1536,512Z" fill="#383838" stroke="#383838" stroke-width="1.51"/><path d="M-91,274L-84,338L86,260Z" fill="#e4e4e4" stroke="#e4e4e4" stroke-width="1.51"/><path d="M-115,790L69,805L-31,689Z" fill="#909090" stroke="#909090" stroke-width="1.51"/><path d="M71,107L-91,274L86,260Z" fill="#ececec" stroke="#ececec" stroke-width="1.51"/><path d="M321,-224L219,-176L360,-12Z" fill="#f0f0f0" stroke="#f0f0f0" stroke-width="1.51"/><path d="M-66,80L-91,274L71,107Z" fill="#f3f3f3" stroke="#f3f3f3" stroke-width="1.51"/><path d="M1401,1132L1468,983L1325,963Z" fill="#060606" stroke="#060606" stroke-width="1.51"/><path d="M113,927L81,1073L193,979Z" fill="#727272" stroke="#727272" stroke-width="1.51"/><path d="M224,1079L-196,1135L508,1116Z" fill="#707070" stroke="#707070" stroke-width="1.51"/><path d="M-33,931L113,927L69,805Z" fill="#777777" stroke="#777777" stroke-width="1.51"/><path d="M-31,689L-204,565L-175,695Z" fill="#a8a8a8" stroke="#a8a8a8" stroke-width="1.51"/><path d="M-115,790L-31,689L-175,695Z" fill="#989898" stroke="#989898" stroke-width="1.51"/><path d="M-115,790L-33,931L69,805Z" fill="#818181" stroke="#818181" stroke-width="1.51"/><path d="M219,-176L33,-58L187,-38Z" fill="#f9f9f9" stroke="#f9f9f9" stroke-width="1.51"/><path d="M1471,68L1482,-35L1388,-43Z" fill="#777777" stroke="#777777" stroke-width="1.51"/><path d="M1388,-43L1347,-231L1234,-59Z" fill="#838383" stroke="#838383" stroke-width="1.51"/><path d="M1648,108L1471,68L1485,210Z" fill="#6f6f6f" stroke="#6f6f6f" stroke-width="1.51"/><path d="M33,-58L-66,80L71,107Z" fill="#fbfbfb" stroke="#fbfbfb" stroke-width="1.51"/><path d="M-31,689L-53,498L-204,565Z" fill="#b3b3b3" stroke="#b3b3b3" stroke-width="1.51"/><path d="M1198,1109L1401,1132L1325,963Z" fill="#121212" stroke="#121212" stroke-width="1.51"/><path d="M1113,1141L1401,1132L1198,1109Z" fill="#191919" stroke="#191919" stroke-width="1.51"/><path d="M1536,512L1674,338L1470,333Z" fill="#515151" stroke="#515151" stroke-width="1.51"/><path d="M1523,814L1616,812L1479,676Z" fill="#1a1a1a" stroke="#1a1a1a" stroke-width="1.51"/><path d="M1656,947L1616,812L1523,814Z" fill="#0a0a0a" stroke="#0a0a0a" stroke-width="1.51"/><path d="M1656,947L1523,814L1468,983Z" fill="#000000" stroke="#000000" stroke-width="1.51"/><path d="M1677,672L1536,512L1479,676Z" fill="#323232" stroke="#323232" stroke-width="1.51"/><path d="M1549,-201L1347,-231L1388,-43Z" fill="#787878" stroke="#787878" stroke-width="1.51"/><path d="M1180,-171L1347,-231L954,-236Z" fill="#989898" stroke="#989898" stroke-width="1.51"/><path d="M1682,543L1674,338L1536,512Z" fill="#474747" stroke="#474747" stroke-width="1.51"/><path d="M-115,790L-208,963L-33,931Z" fill="#787878" stroke="#787878" stroke-width="1.51"/><path d="M-204,565L-53,498L-235,382Z" fill="#c4c4c4" stroke="#c4c4c4" stroke-width="1.51"/><path d="M-53,498L-84,338L-235,382Z" fill="#d1d1d1" stroke="#d1d1d1" stroke-width="1.51"/><path d="M1616,812L1677,672L1479,676Z" fill="#222222" stroke="#222222" stroke-width="1.51"/><path d="M1674,338L1656,222L1470,333Z" fill="#5f5f5f" stroke="#5f5f5f" stroke-width="1.51"/><path d="M1401,1132L1497,1083L1468,983Z" fill="#000000" stroke="#000000" stroke-width="1.51"/><path d="M-235,382L-84,338L-91,274Z" fill="#dfdfdf" stroke="#dfdfdf" stroke-width="1.51"/><path d="M1686,-166L1648,108L1656,222Z" fill="#747474" stroke="#747474" stroke-width="1.51"/><path d="M1656,222L1648,108L1485,210Z" fill="#6a6a6a" stroke="#6a6a6a" stroke-width="1.51"/><path d="M1482,-35L1549,-201L1388,-43Z" fill="#777777" stroke="#777777" stroke-width="1.51"/><path d="M-223,194L-235,382L-91,274Z" fill="#e4e4e4" stroke="#e4e4e4" stroke-width="1.51"/><path d="M33,-58L-86,-19L-66,80Z" fill="#ffffff" stroke="#ffffff" stroke-width="1.51"/><path d="M-109,-202L-86,-19L33,-58Z" fill="#ffffff" stroke="#ffffff" stroke-width="1.51"/><path d="M-223,194L-91,274L-66,80Z" fill="#f0f0f0" stroke="#f0f0f0" stroke-width="1.51"/><path d="M-204,565L-211,780L-175,695Z" fill="#a3a3a3" stroke="#a3a3a3" stroke-width="1.51"/><path d="M-175,695L-211,780L-115,790Z" fill="#919191" stroke="#919191" stroke-width="1.51"/><path d="M-33,931L-107,1079L81,1073Z" fill="#777777" stroke="#777777" stroke-width="1.51"/><path d="M-235,382L-211,780L-204,565Z" fill="#b4b4b4" stroke="#b4b4b4" stroke-width="1.51"/><path d="M954,-236L38,-225L479,-230Z" fill="#e2e2e2" stroke="#e2e2e2" stroke-width="1.51"/><path d="M479,-230L38,-225L321,-224Z" fill="#f1f1f1" stroke="#f1f1f1" stroke-width="1.51"/><path d="M321,-224L38,-225L219,-176Z" fill="#f6f6f6" stroke="#f6f6f6" stroke-width="1.51"/><path d="M219,-176L38,-225L33,-58Z" fill="#fbfbfb" stroke="#fbfbfb" stroke-width="1.51"/><path d="M-206,110L-66,80L-180,-33Z" fill="#fbfbfb" stroke="#fbfbfb" stroke-width="1.51"/><path d="M-206,110L-223,194L-66,80Z" fill="#f6f6f6" stroke="#f6f6f6" stroke-width="1.51"/><path d="M1497,1083L1656,947L1468,983Z" fill="#000000" stroke="#000000" stroke-width="1.51"/><path d="M1616,812L1656,947L1677,672Z" fill="#131313" stroke="#131313" stroke-width="1.51"/><path d="M-180,-33L-66,80L-86,-19Z" fill="#fefefe" stroke="#fefefe" stroke-width="1.51"/><path d="M-208,963L-107,1079L-33,931Z" fill="#777777" stroke="#777777" stroke-width="1.51"/><path d="M81,1073L-196,1135L224,1079Z" fill="#767676" stroke="#767676" stroke-width="1.51"/><path d="M508,1116L-196,1135L829,1136Z" fill="#656565" stroke="#656565" stroke-width="1.51"/><path d="M1648,108L1615,-89L1482,-35Z" fill="#777777" stroke="#777777" stroke-width="1.51"/><path d="M1615,-89L1549,-201L1482,-35Z" fill="#777777" stroke="#777777" stroke-width="1.51"/><path d="M-181,-170L-180,-33L-86,-19Z" fill="#ffffff" stroke="#ffffff" stroke-width="1.51"/><path d="M-206,110L-181,-170L-223,194Z" fill="#fcfcfc" stroke="#fcfcfc" stroke-width="1.51"/><path d="M-211,780L-208,963L-115,790Z" fill="#808080" stroke="#808080" stroke-width="1.51"/><path d="M-235,382L-208,963L-211,780Z" fill="#9c9c9c" stroke="#9c9c9c" stroke-width="1.51"/><path d="M1497,1083L1670,1076L1656,947Z" fill="#000000" stroke="#000000" stroke-width="1.51"/><path d="M1656,947L1670,1076L1677,672Z" fill="#000100" stroke="#000100" stroke-width="1.51"/><path d="M1677,672L1670,1076L1682,543Z" fill="#1a1a1a" stroke="#1a1a1a" stroke-width="1.51"/><path d="M1401,1132L1670,1076L1497,1083Z" fill="#000000" stroke="#000000" stroke-width="1.51"/><path d="M38,-225L-109,-202L33,-58Z" fill="#ffffff" stroke="#ffffff" stroke-width="1.51"/><path d="M-109,-202L-181,-170L-86,-19Z" fill="#ffffff" stroke="#ffffff" stroke-width="1.51"/><path d="M-180,-33L-181,-170L-206,110Z" fill="#ffffff" stroke="#ffffff" stroke-width="1.51"/><path d="M-107,1079L-196,1135L81,1073Z" fill="#777777" stroke="#777777" stroke-width="1.51"/><path d="M829,1136L-196,1135L1113,1141Z" fill="#565656" stroke="#565656" stroke-width="1.51"/><path d="M-208,963L-196,1135L-107,1079Z" fill="#777777" stroke="#777777" stroke-width="1.51"/><path d="M1615,-89L1686,-166L1549,-201Z" fill="#777777" stroke="#777777" stroke-width="1.51"/><path d="M1648,108L1686,-166L1615,-89Z" fill="#777777" stroke="#777777" stroke-width="1.51"/><path d="M1674,338L1686,-166L1656,222Z" fill="#6f6f6f" stroke="#6f6f6f" stroke-width="1.51"/><path d="M1682,543L1686,-166L1674,338Z" fill="#656565" stroke="#656565" stroke-width="1.51"/></svg>